<?xml version="1.0" encoding="UTF-8"?>
<!DOCTYPE svg PUBLIC "-//W3C//DTD SVG 1.1//EN" "http://www.w3.org/Graphics/SVG/1.1/DTD/svg11.dtd">
<!-- Creator: CorelDRAW X7 -->
<svg xmlns="http://www.w3.org/2000/svg" xml:space="preserve" width="36.6302mm" height="12.4203mm" version="1.1" style="shape-rendering:geometricPrecision; text-rendering:geometricPrecision; image-rendering:optimizeQuality; fill-rule:evenodd; clip-rule:evenodd"
viewBox="0 0 5464 1853"
 xmlns:xlink="http://www.w3.org/1999/xlink">
 <defs>
  <style type="text/css">
   <![CDATA[
    .fil1 {fill:#FEFEFE}
    .fil0 {fill:#0197DB}
    .fil2 {fill:#FEFEFE;fill-rule:nonzero}
   ]]>
  </style>
 </defs>
 <g id="Layer_x0020_1">
  <metadata id="CorelCorpID_0Corel-Layer"/>
  <g id="_2512320113520">
   <rect class="fil0" width="5464" height="1853"/>
   <g>
    <path class="fil1" d="M643 1441l0 -1029 383 220 -298 173 0 490 594 -345 0 -99 -509 295 0 -291 763 -443 0 1029 -383 -220 298 -173 0 -488 -594 345 0 98 510 -296 0 292 -764 442zm848 -145l0 -151 -131 76 131 75zm-763 -589l0 -150 130 75 -130 75z"/>
    <path class="fil2" d="M1783 1099l34 -75c28,23 60,34 95,34 37,0 55,-13 55,-39 0,-16 -5,-28 -16,-38 -11,-10 -33,-22 -65,-35 -69,-29 -104,-69 -104,-122 0,-35 13,-62 40,-81 26,-20 60,-30 102,-30 42,0 81,10 118,29l-27 73c-20,-18 -49,-27 -86,-27 -33,0 -49,14 -49,40 0,10 5,19 16,28 11,8 34,19 70,33 35,14 61,31 76,51 16,20 23,44 23,72 0,38 -13,67 -41,89 -28,21 -66,32 -113,32 -27,0 -49,-2 -65,-6 -16,-5 -37,-14 -63,-28z"/>
    <path id="1" class="fil2" d="M2490 952l-289 0c2,32 13,58 33,75 21,18 48,27 83,27 43,0 76,-11 98,-33l37 72c-34,27 -83,40 -149,40 -62,0 -110,-18 -146,-54 -36,-36 -54,-87 -54,-151 0,-64 20,-116 59,-155 39,-40 87,-60 142,-60 58,0 105,18 141,53 35,35 53,80 53,134 0,11 -3,29 -8,52zm-285 -71l198 0c-7,-59 -39,-89 -98,-89 -54,0 -87,30 -100,89z"/>
    <path id="2" class="fil2" d="M2810 1125l0 -233c0,-35 -7,-60 -20,-76 -13,-16 -35,-24 -65,-24 -13,0 -28,4 -44,12 -16,8 -28,17 -37,29l0 292 -94 0 0 -404 68 0 17 38c26,-30 64,-46 114,-46 48,0 86,15 113,44 28,28 42,69 42,120l0 248 -94 0z"/>
    <path id="3" class="fil2" d="M2958 1099l34 -75c28,23 60,34 95,34 37,0 55,-13 55,-39 0,-16 -5,-28 -16,-38 -12,-10 -33,-22 -65,-35 -70,-29 -104,-69 -104,-122 0,-35 13,-62 40,-81 26,-20 60,-30 102,-30 42,0 81,10 118,29l-27 73c-21,-18 -49,-27 -86,-27 -33,0 -49,14 -49,40 0,10 5,19 16,28 11,8 34,19 69,33 36,14 61,31 77,51 16,20 23,44 23,72 0,38 -14,67 -41,89 -28,21 -66,32 -114,32 -27,0 -48,-2 -64,-6 -16,-5 -37,-14 -63,-28z"/>
    <path id="4" class="fil2" d="M3665 952l-289 0c2,32 13,58 33,75 21,18 48,27 83,27 43,0 75,-11 98,-33l36 72c-33,27 -82,40 -148,40 -62,0 -110,-18 -146,-54 -36,-36 -54,-87 -54,-151 0,-64 20,-116 59,-155 39,-40 86,-60 142,-60 58,0 105,18 141,53 35,35 53,80 53,134 0,11 -3,29 -8,52zm-285 -71l198 0c-7,-59 -39,-89 -98,-89 -54,0 -87,30 -100,89z"/>
    <path id="5" class="fil2" d="M3996 1125l0 -233c0,-35 -6,-60 -20,-76 -13,-16 -34,-24 -64,-24 -14,0 -29,4 -44,12 -16,8 -28,17 -37,29l0 292 -94 0 0 -404 67 0 18 38c25,-30 63,-46 113,-46 48,0 86,15 114,44 28,28 42,69 42,120l0 248 -95 0z"/>
    <path id="6" class="fil2" d="M4530 952l-289 0c2,32 13,58 34,75 20,18 47,27 82,27 43,0 76,-11 98,-33l37 72c-33,27 -83,40 -149,40 -61,0 -110,-18 -146,-54 -36,-36 -54,-87 -54,-151 0,-64 20,-116 59,-155 40,-40 87,-60 142,-60 59,0 106,18 141,53 35,35 53,80 53,134 0,11 -3,29 -8,52zm-285 -71l198 0c-6,-59 -39,-89 -98,-89 -53,0 -87,30 -100,89z"/>
    <path id="7" class="fil2" d="M4616 797l-47 0 0 -76 47 0 0 -82 94 -35 0 117 111 0 0 76 -111 0 0 177c0,29 5,50 14,62 9,12 25,17 48,17 22,0 44,-6 63,-18l0 87c-22,7 -53,11 -94,11 -40,0 -71,-11 -93,-34 -21,-23 -32,-55 -32,-97l0 -205z"/>
   </g>
  </g>
 </g>
</svg>
